<?xml version="1.0" encoding="UTF-8" standalone="no"?>
<svg
   xmlns:dc="http://purl.org/dc/elements/1.1/"
   xmlns:cc="http://creativecommons.org/ns#"
   xmlns:rdf="http://www.w3.org/1999/02/22-rdf-syntax-ns#"
   xmlns:svg="http://www.w3.org/2000/svg"
   xmlns="http://www.w3.org/2000/svg"
   xmlns:sodipodi="http://sodipodi.sourceforge.net/DTD/sodipodi-0.dtd"
   xmlns:inkscape="http://www.inkscape.org/namespaces/inkscape"
   width="30"
   height="30"
   viewBox="0 0 30 30"
   fill="none"
   version="1.1"
   id="svg6"
   sodipodi:docname="btn_next.svg"
   inkscape:version="0.92.3 (2405546, 2018-03-11)">
  <metadata
     id="metadata12">
    <rdf:RDF>
      <cc:Work
         rdf:about="">
        <dc:format>image/svg+xml</dc:format>
        <dc:type
           rdf:resource="http://purl.org/dc/dcmitype/StillImage" />
      </cc:Work>
    </rdf:RDF>
  </metadata>
  <defs
     id="defs10" />
  <sodipodi:namedview
     pagecolor="#ffffff"
     bordercolor="#666666"
     borderopacity="1"
     objecttolerance="10"
     gridtolerance="10"
     guidetolerance="10"
     inkscape:pageopacity="0"
     inkscape:pageshadow="2"
     inkscape:window-width="1095"
     inkscape:window-height="648"
     id="namedview8"
     showgrid="false"
     inkscape:zoom="7.8666667"
     inkscape:cx="15"
     inkscape:cy="15"
     inkscape:window-x="0"
     inkscape:window-y="44"
     inkscape:window-maximized="0"
     inkscape:current-layer="svg6" />
  <path
     fill-rule="evenodd"
     clip-rule="evenodd"
     d="M15 30C23.2843 30 30 23.2843 30 15C30 6.71573 23.2843 0 15 0C6.71573 0 0 6.71573 0 15C0 23.2843 6.71573 30 15 30Z"
     fill="#D4D3D3"
     id="path2"
     style="fill:#336cfb;fill-opacity:1" />
  <path
     d="M22.0114 14.0085L17.0533 10.6552C16.7473 10.4483 16.3819 10.4483 16.076 10.6552C15.77 10.8621 15.5874 11.2328 15.5874 11.6466V14.1464C15.5378 14.095 15.4833 14.0486 15.4241 14.0085L10.4659 10.6553C10.1599 10.4483 9.79455 10.4483 9.48861 10.6553C9.18263 10.8622 9 11.2329 9 11.6467V18.3533C9 18.7672 9.18271 19.1378 9.48861 19.3447C9.64166 19.4482 9.80943 19.5 9.97731 19.5C10.1451 19.5 10.313 19.4482 10.4659 19.3447L15.424 15.9915C15.4833 15.9514 15.5378 15.9051 15.5874 15.8536V18.3534C15.5874 18.7672 15.7701 19.1379 16.076 19.3448C16.229 19.4483 16.3968 19.5 16.5647 19.5C16.7325 19.5 16.9003 19.4483 17.0533 19.3448L22.0114 15.9915C22.3174 15.7846 22.5 15.4139 22.5 15C22.5 14.5862 22.3174 14.2154 22.0114 14.0085Z"
     fill="white"
     id="path4" />
</svg>
