<?xml version="1.0" encoding="UTF-8" standalone="no"?>
<svg
   xmlns:dc="http://purl.org/dc/elements/1.1/"
   xmlns:cc="http://creativecommons.org/ns#"
   xmlns:rdf="http://www.w3.org/1999/02/22-rdf-syntax-ns#"
   xmlns:svg="http://www.w3.org/2000/svg"
   xmlns="http://www.w3.org/2000/svg"
   xmlns:sodipodi="http://sodipodi.sourceforge.net/DTD/sodipodi-0.dtd"
   xmlns:inkscape="http://www.inkscape.org/namespaces/inkscape"
   id="svg6"
   version="1.1"
   fill="none"
   viewBox="0 0 30 30"
   height="30"
   width="30"
   sodipodi:docname="repeat_all_hover.svg"
   inkscape:version="0.92.3 (2405546, 2018-03-11)">
  <sodipodi:namedview
     pagecolor="#ffffff"
     bordercolor="#666666"
     borderopacity="1"
     objecttolerance="10"
     gridtolerance="10"
     guidetolerance="10"
     inkscape:pageopacity="0"
     inkscape:pageshadow="2"
     inkscape:window-width="1129"
     inkscape:window-height="683"
     id="namedview7"
     showgrid="false"
     inkscape:zoom="7.8666667"
     inkscape:cx="-5.2754237"
     inkscape:cy="15"
     inkscape:window-x="0"
     inkscape:window-y="44"
     inkscape:window-maximized="0"
     inkscape:current-layer="svg6" />
  <metadata
     id="metadata12">
    <rdf:RDF>
      <cc:Work
         rdf:about="">
        <dc:format>image/svg+xml</dc:format>
        <dc:type
           rdf:resource="http://purl.org/dc/dcmitype/StillImage" />
        <dc:title />
      </cc:Work>
    </rdf:RDF>
  </metadata>
  <defs
     id="defs10" />
  <path
     id="path2"
     fill="#D4D3D3"
     d="M15 30C23.2843 30 30 23.2843 30 15C30 6.71573 23.2843 0 15 0C6.71573 0 0 6.71573 0 15C0 23.2843 6.71573 30 15 30Z"
     clip-rule="evenodd"
     fill-rule="evenodd"
     style="fill:#336cfb;fill-opacity:0.78431374" />
  <path
     style="fill:#ffffff;fill-opacity:0.94117647"
     id="path4"
     fill="white"
     d="M17.7296 9.97355C17.732 9.97355 17.7343 9.97389 17.7367 9.97392C20.6468 9.97793 23 12.3299 23 15.2365C23 16.5476 22.4752 17.7821 21.5607 18.696C21.3035 18.953 20.8863 18.9532 20.6289 18.6964C20.3715 18.4396 20.3713 18.0231 20.6285 17.7661C21.2991 17.0959 21.6823 16.1945 21.6823 15.2365C21.6823 13.054 19.9151 11.2894 17.7292 11.2894L17.724 11.2892H14.0494L14.9012 12.1397C15.1585 12.3966 15.1585 12.8131 14.9012 13.07C14.6439 13.3269 14.2268 13.3269 13.9695 13.07L11.993 11.0965C11.9776 11.0812 11.9631 11.065 11.9493 11.0483C11.9452 11.0433 11.9415 11.0381 11.9378 11.033C11.9358 11.0303 11.9338 11.0276 11.9318 11.0249C11.9301 11.0226 11.9284 11.0203 11.9266 11.018C11.9213 11.011 11.9159 11.0039 11.911 10.9966C11.9063 10.9897 11.9021 10.9825 11.898 10.9754C11.8965 10.9729 11.895 10.9704 11.8935 10.968C11.8921 10.9656 11.8907 10.9633 11.8893 10.961C11.8853 10.9545 11.8814 10.9481 11.8778 10.9414C11.8738 10.934 11.8703 10.9264 11.8668 10.9188C11.8657 10.9164 11.8646 10.914 11.8634 10.9116C11.8622 10.909 11.8609 10.9063 11.8596 10.9037C11.8563 10.8969 11.8531 10.89 11.8502 10.883C11.8472 10.876 11.8447 10.8688 11.8422 10.8616C11.8413 10.859 11.8404 10.8563 11.8394 10.8537C11.8384 10.8509 11.8374 10.8481 11.8363 10.8453C11.8336 10.8377 11.8308 10.8301 11.8284 10.8223C11.8263 10.8153 11.8246 10.8082 11.8228 10.8011C11.8222 10.7983 11.8215 10.7954 11.8208 10.7926C11.82 10.7897 11.8193 10.7868 11.8185 10.7839C11.8164 10.776 11.8144 10.768 11.8128 10.7599C11.8111 10.7514 11.8099 10.7428 11.8087 10.7343C11.8083 10.7313 11.8079 10.7283 11.8075 10.7253C11.807 10.722 11.8065 10.7187 11.8059 10.7154C11.8049 10.7091 11.8039 10.7027 11.8033 10.6963C11.8012 10.6749 11.8001 10.6535 11.8 10.6321L11.8 10.6314L11.8 10.6307C11.8 10.6092 11.8012 10.5878 11.8033 10.5664C11.8039 10.56 11.8049 10.5537 11.8059 10.5474C11.8065 10.5441 11.807 10.5408 11.8075 10.5375C11.8079 10.5348 11.8082 10.5321 11.8086 10.5294C11.8098 10.5205 11.811 10.5117 11.8128 10.5029C11.8144 10.4947 11.8164 10.4868 11.8185 10.4788C11.8193 10.4759 11.82 10.473 11.8208 10.4701C11.8215 10.4673 11.8221 10.4645 11.8228 10.4617C11.8246 10.4546 11.8263 10.4474 11.8284 10.4404C11.8309 10.4322 11.8339 10.4242 11.8368 10.4162C11.8377 10.4138 11.8385 10.4114 11.8394 10.409C11.8404 10.4064 11.8413 10.4038 11.8422 10.4011C11.8447 10.3939 11.8472 10.3867 11.8502 10.3796C11.8531 10.3727 11.8563 10.3659 11.8596 10.3591C11.8609 10.3565 11.8622 10.3538 11.8635 10.3511C11.8646 10.3487 11.8657 10.3462 11.8669 10.3438C11.8704 10.3362 11.8739 10.3287 11.8778 10.3213C11.8813 10.3148 11.8851 10.3086 11.8889 10.3024C11.8905 10.2998 11.892 10.2973 11.8935 10.2947C11.895 10.2923 11.8964 10.2899 11.8978 10.2875C11.902 10.2803 11.9063 10.2731 11.911 10.2661C11.9159 10.2587 11.9213 10.2517 11.9266 10.2446C11.9283 10.2424 11.9301 10.2401 11.9318 10.2378C11.9338 10.2351 11.9358 10.2324 11.9378 10.2297C11.9415 10.2245 11.9452 10.2194 11.9493 10.2144C11.9631 10.1977 11.9776 10.1815 11.993 10.1662L13.9695 8.19267C14.2268 7.93578 14.6439 7.93578 14.9012 8.19267C15.1585 8.44957 15.1585 8.86611 14.9012 9.12301L14.0494 9.97355H17.7296ZM18.0737 19.7551C18.0719 19.7574 18.0701 19.7597 18.0684 19.7621C18.0664 19.7647 18.0644 19.7674 18.0625 19.7701C18.0587 19.7753 18.0549 19.7805 18.0508 19.7856C18.0371 19.8022 18.0227 19.8182 18.0075 19.8334L18.0071 19.8338L16.0306 21.8073C15.7733 22.0642 15.3561 22.0642 15.0988 21.8073C14.8415 21.5504 14.8415 21.1339 15.0988 20.877L15.9506 20.0265H12.2705C12.2692 20.0265 12.268 20.0264 12.2668 20.0263C12.2656 20.0262 12.2645 20.0261 12.2634 20.0261C9.3532 20.0221 7 17.6701 7 14.7634C7 13.4523 7.5248 12.2178 8.43933 11.304C8.69653 11.047 9.11367 11.0468 9.37109 11.3036C9.6285 11.5604 9.62868 11.9769 9.37149 12.2339C8.70091 12.9041 8.31771 13.8055 8.31771 14.7635C8.31771 16.946 10.0849 18.7105 12.2708 18.7105L12.276 18.7108H15.9506L15.0988 17.8603C14.8415 17.6034 14.8415 17.1869 15.0988 16.93C15.3561 16.6731 15.7733 16.6731 16.0306 16.93L18.0071 18.9035L18.0078 18.9042C18.0229 18.9193 18.0372 18.9352 18.0508 18.9517C18.0549 18.9567 18.0587 18.9619 18.0625 18.9672C18.0644 18.9699 18.0664 18.9726 18.0684 18.9752C18.0754 18.9846 18.0826 18.9937 18.0891 19.0034C18.0938 19.0104 18.098 19.0176 18.1022 19.0248C18.1037 19.0272 18.1051 19.0297 18.1066 19.0321C18.1118 19.0409 18.1174 19.0495 18.1222 19.0586C18.1275 19.0684 18.1319 19.0785 18.1367 19.0885C18.1378 19.091 18.139 19.0934 18.1402 19.0959C18.1436 19.1028 18.1469 19.1098 18.1499 19.1169C18.1528 19.1239 18.1553 19.131 18.1578 19.1381C18.1587 19.1409 18.1597 19.1437 18.1607 19.1464C18.1617 19.1491 18.1627 19.1518 18.1637 19.1545C18.1665 19.1622 18.1693 19.1698 18.1717 19.1777C18.1738 19.1848 18.1756 19.192 18.1773 19.1992C18.178 19.202 18.1787 19.2048 18.1794 19.2075C18.18 19.2103 18.1808 19.213 18.1815 19.2157C18.1836 19.2238 18.1857 19.2318 18.1873 19.2401C18.1896 19.2517 18.191 19.2633 18.1926 19.2749C18.1931 19.2781 18.1936 19.2813 18.1941 19.2845C18.1951 19.2909 18.1962 19.2972 18.1968 19.3037C18.2011 19.3469 18.2011 19.3904 18.1968 19.4336C18.1962 19.4398 18.1952 19.446 18.1942 19.4521C18.1937 19.4555 18.1931 19.4589 18.1926 19.4623C18.1909 19.4739 18.1896 19.4856 18.1873 19.4972C18.1857 19.5054 18.1836 19.5134 18.1814 19.5215C18.1807 19.5242 18.18 19.5269 18.1793 19.5297C18.1768 19.5396 18.1746 19.5497 18.1716 19.5596C18.17 19.5649 18.1682 19.5701 18.1664 19.5753C18.1645 19.5805 18.1626 19.5856 18.1607 19.5908C18.1572 19.6007 18.1539 19.6106 18.1499 19.6203C18.1459 19.63 18.1412 19.6393 18.1367 19.6487C18.1319 19.6588 18.1275 19.6688 18.1223 19.6787C18.1174 19.6877 18.1119 19.6963 18.1066 19.7051C18.1051 19.7076 18.1036 19.7101 18.1022 19.7126C18.098 19.7198 18.0938 19.7269 18.0891 19.7339C18.0843 19.7411 18.079 19.7481 18.0737 19.7551Z"
     clip-rule="evenodd"
     fill-rule="evenodd" />
</svg>
