<?xml version="1.0" encoding="UTF-8" standalone="no"?>
<svg
   xmlns:dc="http://purl.org/dc/elements/1.1/"
   xmlns:cc="http://creativecommons.org/ns#"
   xmlns:rdf="http://www.w3.org/1999/02/22-rdf-syntax-ns#"
   xmlns:svg="http://www.w3.org/2000/svg"
   xmlns="http://www.w3.org/2000/svg"
   xmlns:sodipodi="http://sodipodi.sourceforge.net/DTD/sodipodi-0.dtd"
   xmlns:inkscape="http://www.inkscape.org/namespaces/inkscape"
   width="30"
   height="30"
   viewBox="0 0 30 30"
   fill="none"
   version="1.1"
   id="svg6"
   sodipodi:docname="shuffle_enable_hover.svg"
   inkscape:version="0.92.3 (2405546, 2018-03-11)">
  <metadata
     id="metadata12">
    <rdf:RDF>
      <cc:Work
         rdf:about="">
        <dc:format>image/svg+xml</dc:format>
        <dc:type
           rdf:resource="http://purl.org/dc/dcmitype/StillImage" />
      </cc:Work>
    </rdf:RDF>
  </metadata>
  <defs
     id="defs10" />
  <sodipodi:namedview
     pagecolor="#ffffff"
     bordercolor="#666666"
     borderopacity="1"
     objecttolerance="10"
     gridtolerance="10"
     guidetolerance="10"
     inkscape:pageopacity="0"
     inkscape:pageshadow="2"
     inkscape:window-width="1078"
     inkscape:window-height="627"
     id="namedview8"
     showgrid="false"
     inkscape:zoom="7.8666667"
     inkscape:cx="15"
     inkscape:cy="15"
     inkscape:window-x="0"
     inkscape:window-y="44"
     inkscape:window-maximized="0"
     inkscape:current-layer="svg6" />
  <path
     fill-rule="evenodd"
     clip-rule="evenodd"
     d="M15 30C23.2843 30 30 23.2843 30 15C30 6.71573 23.2843 0 15 0C6.71573 0 0 6.71573 0 15C0 23.2843 6.71573 30 15 30Z"
     fill="#336CFB"
     id="path2"
     style="fill:#336cfb;fill-opacity:0.78431374" />
  <path
     d="M22.8668 19.8352C22.8739 19.8261 22.8812 19.8173 22.8878 19.8079C22.8941 19.7988 22.8996 19.7894 22.9055 19.7801C22.9108 19.7716 22.9164 19.7632 22.9213 19.7545C22.9266 19.745 22.9311 19.7352 22.9359 19.7255C22.9404 19.7164 22.9452 19.7074 22.9493 19.698C22.9533 19.6886 22.9566 19.679 22.9602 19.6695C22.964 19.6594 22.968 19.6495 22.9713 19.6393C22.9743 19.6297 22.9765 19.62 22.979 19.6104C22.9818 19.5999 22.9849 19.5895 22.9871 19.5789C22.9894 19.5677 22.9908 19.5564 22.9925 19.5452C22.9939 19.5359 22.9958 19.5268 22.9967 19.5174C23.001 19.4756 23.001 19.4335 22.9967 19.3918C22.9958 19.3823 22.9939 19.3732 22.9925 19.3639C22.9908 19.3527 22.9895 19.3414 22.9871 19.3302C22.9849 19.3196 22.9819 19.3092 22.9791 19.2987C22.9765 19.2891 22.9743 19.2794 22.9713 19.2699C22.968 19.2596 22.964 19.2497 22.9602 19.2396C22.9566 19.2301 22.9533 19.2205 22.9493 19.2111C22.9452 19.2017 22.9404 19.1927 22.9359 19.1836C22.9311 19.1739 22.9266 19.1641 22.9213 19.1546C22.9164 19.1459 22.9108 19.1376 22.9055 19.1291C22.8996 19.1198 22.8941 19.1103 22.8878 19.1013C22.8812 19.0919 22.8739 19.083 22.8668 19.074C22.8608 19.0664 22.8553 19.0586 22.849 19.0512C22.8352 19.0353 22.8207 19.0199 22.8055 19.0053C22.8052 19.0051 22.805 19.0048 22.8048 19.0046L20.8048 17.0955C20.5444 16.847 20.1223 16.847 19.862 17.0955C19.6016 17.344 19.6016 17.747 19.862 17.9955L20.7239 18.8182H18.3334C16.1242 18.8182 14.3334 17.1087 14.3334 15C14.3334 12.8912 16.1242 11.1818 18.3334 11.1818H20.7239L19.862 12.0045C19.6017 12.2531 19.6017 12.656 19.862 12.9045C20.1223 13.153 20.5445 13.153 20.8048 12.9045L22.8048 10.9954C22.805 10.9953 22.805 10.9952 22.8052 10.9951C22.8205 10.9803 22.8351 10.9649 22.849 10.9488C22.8553 10.9414 22.8608 10.9337 22.8667 10.9261C22.8738 10.9171 22.8812 10.9082 22.8878 10.8988C22.8941 10.8897 22.8996 10.8803 22.9055 10.871C22.9108 10.8625 22.9164 10.8542 22.9213 10.8454C22.9266 10.8359 22.9311 10.8261 22.9359 10.8165C22.9405 10.8073 22.9452 10.7983 22.9493 10.7889C22.9534 10.7795 22.9566 10.77 22.9602 10.7604C22.964 10.7504 22.968 10.7404 22.9713 10.7301C22.9744 10.7206 22.9766 10.7109 22.9791 10.7013C22.9819 10.6908 22.985 10.6804 22.9872 10.6698C22.9895 10.6586 22.9909 10.6473 22.9925 10.6361C22.9939 10.6268 22.9958 10.6176 22.9968 10.6082C23.0011 10.5665 23.0011 10.5244 22.9968 10.4826C22.9958 10.4732 22.994 10.4641 22.9925 10.4548C22.9909 10.4435 22.9895 10.4323 22.9871 10.4211C22.9849 10.4104 22.9819 10.4001 22.9791 10.3896C22.9765 10.38 22.9743 10.3703 22.9713 10.3607C22.968 10.3505 22.964 10.3405 22.9602 10.3305C22.9566 10.321 22.9534 10.3114 22.9493 10.302C22.9452 10.2926 22.9405 10.2836 22.9359 10.2745C22.9311 10.2648 22.9266 10.255 22.9213 10.2455C22.9164 10.2368 22.9108 10.2284 22.9055 10.2199C22.8997 10.2106 22.8942 10.2012 22.8878 10.1921C22.8812 10.1827 22.8739 10.1739 22.8668 10.1648C22.8609 10.1573 22.8553 10.1495 22.849 10.1421C22.8351 10.126 22.8206 10.1105 22.8052 10.0958C22.805 10.0957 22.805 10.0956 22.8048 10.0955L20.8048 8.18638C20.5445 7.93787 20.1223 7.93787 19.862 8.18638C19.6017 8.43489 19.6017 8.83783 19.862 9.08634L20.7239 9.90911H18.3334C16.3251 9.90911 14.5764 10.9688 13.6667 12.5342C12.757 10.9687 11.0083 9.90905 9.00001 9.90905H7.66666C7.29847 9.90905 7 10.194 7 10.5454C7 10.8969 7.29847 11.1818 7.66666 11.1818H9.00001C11.2092 11.1818 13 12.8912 13 15C13 17.1087 11.2092 18.8182 9.00001 18.8182H7.66666C7.29847 18.8182 7 19.1031 7 19.4545C7 19.806 7.29847 20.0909 7.66666 20.0909H9.00001C11.0083 20.0909 12.757 19.0312 13.6667 17.4658C14.5764 19.0312 16.3251 20.0909 18.3334 20.0909H20.7239L19.862 20.9137C19.6016 21.1622 19.6016 21.5651 19.862 21.8136C20.1223 22.0621 20.5444 22.0621 20.8048 21.8136L22.8048 19.9045C22.8049 19.9044 22.805 19.9043 22.8051 19.9042C22.8205 19.8895 22.8351 19.874 22.849 19.8579C22.8553 19.8505 22.8608 19.8427 22.8668 19.8352Z"
     fill="white"
     id="path4" />
</svg>
