<?xml version="1.0" encoding="UTF-8" standalone="no"?>
<!-- Generator: Adobe Illustrator 22.0.2, SVG Export Plug-In . SVG Version: 6.00 Build 0)  -->

<svg
   xmlns:dc="http://purl.org/dc/elements/1.1/"
   xmlns:cc="http://creativecommons.org/ns#"
   xmlns:rdf="http://www.w3.org/1999/02/22-rdf-syntax-ns#"
   xmlns:svg="http://www.w3.org/2000/svg"
   xmlns="http://www.w3.org/2000/svg"
   xmlns:sodipodi="http://sodipodi.sourceforge.net/DTD/sodipodi-0.dtd"
   xmlns:inkscape="http://www.inkscape.org/namespaces/inkscape"
   version="1.1"
   id="图层_1"
   x="0px"
   y="0px"
   viewBox="0 0 30 30"
   style="enable-background:new 0 0 30 30;"
   xml:space="preserve"
   sodipodi:docname="volume-10-hover.svg"
   inkscape:version="0.92.3 (2405546, 2018-03-11)"><metadata
   id="metadata17"><rdf:RDF><cc:Work
       rdf:about=""><dc:format>image/svg+xml</dc:format><dc:type
         rdf:resource="http://purl.org/dc/dcmitype/StillImage" /></cc:Work></rdf:RDF></metadata><defs
   id="defs15" /><sodipodi:namedview
   pagecolor="#ffffff"
   bordercolor="#666666"
   borderopacity="1"
   objecttolerance="10"
   gridtolerance="10"
   guidetolerance="10"
   inkscape:pageopacity="0"
   inkscape:pageshadow="2"
   inkscape:window-width="990"
   inkscape:window-height="703"
   id="namedview13"
   showgrid="false"
   inkscape:zoom="7.8666667"
   inkscape:cx="15"
   inkscape:cy="15"
   inkscape:window-x="0"
   inkscape:window-y="44"
   inkscape:window-maximized="0"
   inkscape:current-layer="图层_1" />
<style
   type="text/css"
   id="style2">
	.st0{fill:#336CFB;}
	.st1{fill:#FFFFFF;}
</style>
<path
   class="st0"
   d="M15,30c8.284,0,15-6.716,15-15c0-8.284-6.716-15-15-15C6.716,0,0,6.716,0,15C0,23.284,6.716,30,15,30z"
   id="path4"
   style="fill:#336cfb;fill-opacity:0.78431374" />
<path
   class="st1"
   d="M10.147,12.314H7.5v5.406h2.647l5.005,3.403c0,0,0.92,0.704,0.92-0.024c0-0.73,0-11.606,0-12.27  c0-0.571-0.809-0.013-0.809-0.013L10.147,12.314z"
   id="path6" />
<path
   class="st1"
   d="M18.01,11.934c-0.198-0.197-0.52-0.197-0.718,0c-0.198,0.198-0.198,0.519,0,0.714  c0.654,0.652,0.977,1.497,0.979,2.349c-0.002,0.854-0.325,1.705-0.979,2.354c-0.198,0.197-0.198,0.519,0,0.716  c0.099,0.098,0.229,0.147,0.36,0.147c0.13,0,0.259-0.048,0.358-0.147c0.851-0.848,1.277-1.961,1.276-3.07  C19.287,13.889,18.86,12.779,18.01,11.934z"
   id="path8" />
<path
   class="st1"
   d="M20.28,9.809c-0.23-0.221-0.596-0.221-0.825,0c-0.225,0.221-0.225,0.575,0,0.796  c1.255,1.214,1.882,2.796,1.882,4.386c-0.001,1.597-0.625,3.189-1.882,4.407c-0.226,0.22-0.225,0.575,0,0.796  c0.114,0.109,0.264,0.164,0.413,0.164c0.149,0,0.299-0.055,0.413-0.164c1.48-1.438,2.22-3.322,2.22-5.203  C22.5,13.116,21.755,11.239,20.28,9.809z"
   id="path10" />
</svg>