<?xml version="1.0" encoding="UTF-8" standalone="no"?>
<svg
   xmlns:dc="http://purl.org/dc/elements/1.1/"
   xmlns:cc="http://creativecommons.org/ns#"
   xmlns:rdf="http://www.w3.org/1999/02/22-rdf-syntax-ns#"
   xmlns:svg="http://www.w3.org/2000/svg"
   xmlns="http://www.w3.org/2000/svg"
   xmlns:sodipodi="http://sodipodi.sourceforge.net/DTD/sodipodi-0.dtd"
   xmlns:inkscape="http://www.inkscape.org/namespaces/inkscape"
   width="30"
   height="30"
   viewBox="0 0 30 30"
   fill="none"
   version="1.1"
   id="svg12"
   sodipodi:docname="volume.svg"
   inkscape:version="0.92.3 (2405546, 2018-03-11)">
  <metadata
     id="metadata18">
    <rdf:RDF>
      <cc:Work
         rdf:about="">
        <dc:format>image/svg+xml</dc:format>
        <dc:type
           rdf:resource="http://purl.org/dc/dcmitype/StillImage" />
      </cc:Work>
    </rdf:RDF>
  </metadata>
  <defs
     id="defs16" />
  <sodipodi:namedview
     pagecolor="#ffffff"
     bordercolor="#666666"
     borderopacity="1"
     objecttolerance="10"
     gridtolerance="10"
     guidetolerance="10"
     inkscape:pageopacity="0"
     inkscape:pageshadow="2"
     inkscape:window-width="1478"
     inkscape:window-height="761"
     id="namedview14"
     showgrid="false"
     inkscape:zoom="7.8666667"
     inkscape:cx="-0.63559322"
     inkscape:cy="15"
     inkscape:window-x="0"
     inkscape:window-y="44"
     inkscape:window-maximized="0"
     inkscape:current-layer="svg12" />
  <path
     d="M15 30C23.2843 30 30 23.2843 30 15C30 6.71573 23.2843 0 15 0C6.71573 0 0 6.71573 0 15C0 23.2843 6.71573 30 15 30Z"
     id="path2"
     clip-rule="evenodd"
     fill-rule="evenodd"
     fill="#D4D3D3"
     opacity="0.6" />
  <path
     d="M10.1472 12.3138H7.5V17.7198H10.1472L15.1517 21.1225C15.1517 21.1225 16.0714 21.8269 16.0714 21.0989C16.0714 20.3689 16.0714 9.49306 16.0714 8.82896C16.0714 8.25748 15.2619 8.81588 15.2619 8.81588L10.1472 12.3138Z"
     fill="white"
     id="path6" />
  <path
     fill-rule="evenodd"
     clip-rule="evenodd"
     d="M18.01 11.9337C17.8115 11.7366 17.4902 11.7366 17.2918 11.9337C17.0933 12.1316 17.0933 12.4525 17.2918 12.6474C17.9454 13.299 18.2692 14.1447 18.2704 14.9967C18.2687 15.8505 17.9449 16.7014 17.2918 17.3508C17.0933 17.5474 17.0933 17.8696 17.2918 18.0671C17.3908 18.1656 17.5204 18.2145 17.6517 18.2145C17.7813 18.2145 17.9109 18.1661 18.01 18.0671C18.8612 17.2193 19.2866 16.1059 19.2857 14.9967C19.2866 13.8889 18.8599 12.7789 18.01 11.9337Z"
     fill="white"
     id="path8" />
  <path
     fill-rule="evenodd"
     clip-rule="evenodd"
     d="M20.2798 9.80851C20.05 9.58792 19.6837 9.58792 19.4548 9.80851C19.2298 10.0291 19.2298 10.384 19.4548 10.6046C20.7096 11.8186 21.3363 13.4009 21.3372 14.9907C21.3363 16.5878 20.7121 18.18 19.4548 19.3978C19.2288 19.6174 19.2298 19.9729 19.4548 20.1935C19.569 20.3026 19.7192 20.3574 19.8673 20.3574C20.0165 20.3574 20.1661 20.3026 20.2798 20.1935C21.7596 18.7556 22.5 16.8712 22.5 14.9907C22.5 13.1164 21.7547 11.2388 20.2798 9.80851Z"
     fill="white"
     id="path10" />
</svg>
