<?xml version="1.0" encoding="utf-8"?>
<!-- Generator: Adobe Illustrator 22.0.2, SVG Export Plug-In . SVG Version: 6.00 Build 0)  -->
<svg version="1.1" id="图层_1" xmlns="http://www.w3.org/2000/svg" xmlns:xlink="http://www.w3.org/1999/xlink" x="0px" y="0px"
	 viewBox="0 0 30 30" style="enable-background:new 0 0 30 30;" xml:space="preserve">
<style type="text/css">
	.st0{opacity:0.6;fill:#D4D3D3;enable-background:new    ;}
	.st1{fill:#336CFB;}
	.st2{fill:#FFFFFF;}
</style>
<path class="st0" d="M15,0C6.716,0,0,6.716,0,15c0,8.284,6.716,15,15,15c8.284,0,15-6.716,15-15C30,6.716,23.284,0,15,0z"/>
<path class="st1" d="M30,15H0c0,8.284,6.716,15,15,15C23.284,30,30,23.284,30,15z"/>
<path class="st2" d="M10.147,12.314H7.5v5.406h2.647l5.005,3.403c0,0,0.92,0.704,0.92-0.024c0-0.73,0-11.606,0-12.27
	c0-0.571-0.809-0.013-0.809-0.013L10.147,12.314z"/>
<path class="st2" d="M18.01,11.934c-0.198-0.197-0.52-0.197-0.718,0c-0.198,0.198-0.198,0.519,0,0.714
	c0.654,0.652,0.977,1.497,0.979,2.349c-0.002,0.854-0.325,1.705-0.979,2.354c-0.198,0.197-0.198,0.519,0,0.716
	c0.099,0.098,0.229,0.147,0.36,0.147c0.13,0,0.259-0.048,0.358-0.147c0.851-0.848,1.277-1.961,1.276-3.07
	C19.287,13.889,18.86,12.779,18.01,11.934z"/>
<path class="st2" d="M20.28,9.809c-0.23-0.221-0.596-0.221-0.825,0c-0.225,0.221-0.225,0.575,0,0.796
	c1.255,1.214,1.882,2.796,1.882,4.386c-0.001,1.597-0.625,3.189-1.882,4.407c-0.226,0.22-0.225,0.575,0,0.796
	c0.114,0.109,0.264,0.164,0.413,0.164c0.149,0,0.299-0.055,0.413-0.164c1.48-1.438,2.22-3.322,2.22-5.203
	C22.5,13.116,21.755,11.239,20.28,9.809z"/>
</svg>
